<?xml version="1.0" encoding="UTF-8" standalone="no"?>
<svg
   xmlns:dc="http://purl.org/dc/elements/1.1/"
   xmlns:cc="http://creativecommons.org/ns#"
   xmlns:rdf="http://www.w3.org/1999/02/22-rdf-syntax-ns#"
   xmlns:svg="http://www.w3.org/2000/svg"
   xmlns="http://www.w3.org/2000/svg"
   viewBox="0 0 533.33331 533.33331"
   height="533.33331"
   width="533.33331"
   xml:space="preserve"
   id="svg2"
   version="1.1"><metadata
     id="metadata8"><rdf:RDF><cc:Work
         rdf:about=""><dc:format>image/svg+xml</dc:format><dc:type
           rdf:resource="http://purl.org/dc/dcmitype/StillImage" /></cc:Work></rdf:RDF></metadata><defs
     id="defs6"><clipPath
       id="clipPath54"
       clipPathUnits="userSpaceOnUse"><path
         id="path52"
         d="M 0,400 H 400 V 0 H 0 Z" /></clipPath></defs><g
     transform="matrix(1.3333333,0,0,-1.3333333,0,533.33333)"
     id="g10"><g
       transform="translate(203.1968,383.0554)"
       id="g12"><path
         id="path14"
         style="fill:#e535ab;fill-opacity:1;fill-rule:nonzero;stroke:none"
         d="m 0,0 14.402,-8.315 -160.126,-277.348 -14.403,8.315 z" /></g><g
       transform="translate(39.8,127.8002)"
       id="g16"><path
         id="path18"
         style="fill:#e535ab;fill-opacity:1;fill-rule:nonzero;stroke:none"
         d="m 0,0 v -16.63 l 320.254,-0.001 V 0 Z" /></g><g
       transform="translate(46.1349,118.5108)"
       id="g20"><path
         id="path22"
         style="fill:#e535ab;fill-opacity:1;fill-rule:nonzero;stroke:none"
         d="m 0,0 160.226,-92.507 8.315,14.403 L 8.315,14.402 Z" /></g><g
       transform="translate(185.324,359.5933)"
       id="g24"><path
         id="path26"
         style="fill:#e535ab;fill-opacity:1;fill-rule:nonzero;stroke:none"
         d="m 0,0 160.226,-92.506 8.315,14.402 L 8.315,14.402 Z" /></g><g
       transform="translate(46.1352,281.4891)"
       id="g28"><path
         id="path30"
         style="fill:#e535ab;fill-opacity:1;fill-rule:nonzero;stroke:none"
         d="M 0,0 8.314,-14.402 168.54,78.104 160.226,92.506 Z" /></g><g
       transform="translate(182.4291,374.6398)"
       id="g32"><path
         id="path34"
         style="fill:#e535ab;fill-opacity:1;fill-rule:nonzero;stroke:none"
         d="m 0,0 160.127,-277.348 14.402,8.315 L 14.402,8.314 Z" /></g><g
       transform="translate(52.496,292.5063)"
       id="g36"><path
         id="path38"
         style="fill:#e535ab;fill-opacity:1;fill-rule:nonzero;stroke:none"
         d="m 0,0 v -185.013 l 16.63,0.001 V 0 Z" /></g><g
       transform="translate(330.8736,292.5065)"
       id="g40"><path
         id="path42"
         style="fill:#e535ab;fill-opacity:1;fill-rule:nonzero;stroke:none"
         d="M 0,0 V -185.013 H 16.63 V 0 Z" /></g><g
       transform="translate(196.3156,45.5006)"
       id="g44"><path
         id="path46"
         style="fill:#e535ab;fill-opacity:1;fill-rule:nonzero;stroke:none"
         d="m 0,0 7.231,-12.524 139.326,80.441 -7.23,12.523 z" /></g><g
       id="g48"><g
         clip-path="url(#clipPath54)"
         id="g50"><g
           transform="translate(369.5388,102.1166)"
           id="g56"><path
             id="path58"
             style="fill:#e535ab;fill-opacity:1;fill-rule:nonzero;stroke:none"
             d="m 0,0 c -9.634,-16.686 -30.972,-22.404 -47.658,-12.77 -16.682,9.632 -22.4,30.97 -12.766,47.656 9.634,16.686 30.972,22.403 47.654,12.772 C 3.916,38.024 9.634,16.686 0,0" /></g><g
           transform="translate(90.885,262.9975)"
           id="g60"><path
             id="path62"
             style="fill:#e535ab;fill-opacity:1;fill-rule:nonzero;stroke:none"
             d="m 0,0 c -9.634,-16.686 -30.972,-22.404 -47.658,-12.77 -16.682,9.632 -22.4,30.97 -12.766,47.656 9.634,16.686 30.972,22.403 47.654,12.772 C 3.916,38.024 9.634,16.686 0,0" /></g><g
           transform="translate(30.4611,102.1167)"
           id="g64"><path
             id="path66"
             style="fill:#e535ab;fill-opacity:1;fill-rule:nonzero;stroke:none"
             d="M 0,0 C -9.634,16.686 -3.916,38.024 12.77,47.658 29.452,57.289 50.79,51.572 60.424,34.886 70.058,18.2 64.34,-3.139 47.658,-12.77 30.972,-22.404 9.634,-16.686 0,0" /></g><g
           transform="translate(309.115,262.9976)"
           id="g68"><path
             id="path70"
             style="fill:#e535ab;fill-opacity:1;fill-rule:nonzero;stroke:none"
             d="M 0,0 C -9.634,16.686 -3.916,38.024 12.77,47.658 29.452,57.289 50.79,51.572 60.424,34.886 70.058,18.2 64.34,-3.139 47.658,-12.77 30.972,-22.404 9.634,-16.686 0,0" /></g><g
           transform="translate(199.9999,4.2334)"
           id="g72"><path
             id="path74"
             style="fill:#e535ab;fill-opacity:1;fill-rule:nonzero;stroke:none"
             d="m 0,0 c -19.267,0 -34.888,15.621 -34.888,34.888 0,19.263 15.621,34.883 34.888,34.883 19.268,0 34.888,-15.62 34.888,-34.883 C 34.888,15.621 19.268,0 0,0" /></g><g
           transform="translate(199.9999,325.9951)"
           id="g76"><path
             id="path78"
             style="fill:#e535ab;fill-opacity:1;fill-rule:nonzero;stroke:none"
             d="m 0,0 c -19.267,0 -34.888,15.621 -34.888,34.888 0,19.263 15.621,34.883 34.888,34.883 19.268,0 34.888,-15.62 34.888,-34.883 C 34.888,15.621 19.268,0 0,0" /></g></g></g></g></svg>